<?xml version="1.0" encoding="UTF-8"?><svg id="Layer_1" xmlns="http://www.w3.org/2000/svg" xmlns:xlink="http://www.w3.org/1999/xlink" viewBox="0 0 128 128"><defs><style>.cls-1{fill:url(#juze);}.cls-2{fill:none;stroke:#000;stroke-linecap:round;stroke-linejoin:round;stroke-width:2px;}</style><linearGradient id="juze" x1="10.79" y1="64" x2="117.21" y2="64" gradientUnits="userSpaceOnUse"><stop offset="0" stop-color="#bbde51"/><stop offset="1" stop-color="#d8eea8"/></linearGradient></defs><path class="cls-1" d="M10.79,89.65V38.08c.05-.22,.11-.45,.16-.68,.76-3.35,2.67-5.91,5.61-7.61C30.43,21.71,44.32,13.65,58.22,5.62c3.79-2.2,7.71-2.13,11.41,0,13.96,8,27.86,16.1,41.78,24.18,3.87,2.24,5.75,5.72,5.77,10.08,.06,16.16,.03,32.31,.02,48.47,.01,.46,0,.93-.06,1.39-.54,3.79-2.54,6.65-5.8,8.54-13.92,8.11-27.85,16.2-41.8,24.25-1.03,.61-2.16,1.03-3.34,1.25-.58,.1-1.16,.15-1.74,.22h-.64c-.12-.03-.24-.05-.36-.07-1.95-.11-3.84-.68-5.52-1.67-5.64-3.28-11.28-6.55-16.92-9.81l-24.69-14.31c-1.55-.89-2.86-2.16-3.79-3.68-.91-1.49-1.4-3.11-1.74-4.8Z"/><path class="cls-2" d="M80.5,34h-9c-8.28,0-15,6.72-15,15h0v9h-9v12h9v24h12v-24h9l3-12h-12v-9c0-1.66,1.34-3,3-3h9v-12Z"/></svg>