<?xml version="1.0" encoding="UTF-8"?><svg id="Layer_1" xmlns="http://www.w3.org/2000/svg" xmlns:xlink="http://www.w3.org/1999/xlink" viewBox="0 0 128 128"><defs><style>.cls-1{fill:url(#juze);}.cls-2{stroke-width:5px;}.cls-2,.cls-3{fill:none;stroke:#000;stroke-linecap:round;stroke-linejoin:round;}.cls-3{stroke-width:2px;}</style><linearGradient id="juze" x1="62.43" y1="126" x2="62.43" y2="2" gradientUnits="userSpaceOnUse"><stop offset="0" stop-color="#bbde51"/><stop offset="1" stop-color="#d8eea8"/></linearGradient></defs><path class="cls-1" d="M7.45,90.51V37.21c.05-.23,.11-.46,.17-.7,.79-3.46,2.76-6.1,5.79-7.87C27.75,20.3,42.09,11.97,56.46,3.68c3.92-2.27,7.96-2.2,11.79,0,14.43,8.26,28.79,16.64,43.17,24.99,4,2.32,5.94,5.91,5.96,10.42,.07,16.7,.03,33.39,.02,50.09,.01,.48,0,.96-.06,1.43-.56,3.92-2.63,6.87-5.99,8.83-14.38,8.38-28.78,16.74-43.2,25.06-1.07,.63-2.23,1.06-3.45,1.29-.59,.11-1.2,.16-1.8,.23h-.66c-.12-.03-.25-.06-.37-.07-2.01-.11-3.97-.71-5.7-1.73-5.83-3.38-11.65-6.76-17.48-10.14l-25.52-14.79c-1.6-.92-2.95-2.23-3.92-3.81-.94-1.53-1.45-3.22-1.8-4.96Z"/><rect class="cls-3" x="37.79" y="38.97" width="49.67" height="49.67" rx="12.42" ry="12.42"/><path class="cls-3" d="M72.56,62.24c.8,5.43-2.94,10.48-8.37,11.28-5.43,.8-10.48-2.94-11.28-8.37-.8-5.43,2.94-10.48,8.37-11.28,.97-.14,1.95-.14,2.91,0,4.33,.64,7.73,4.04,8.37,8.37Z"/><line class="cls-2" x1="76.29" y1="50.15" x2="76.31" y2="50.15"/></svg>