<svg xmlns="http://www.w3.org/2000/svg" width="24" height="24" viewBox="0 0 24 24"><path d="M19.48,14.51l-5.88.68a13.08,13.08,0,0,0-4.07,1.15L5.69,18.12h0A8.56,8.56,0,0,1,3,12.35H3l3.71-1.73a14.07,14.07,0,0,0,3.72-2.53l4.2-4" style="stroke:#000;stroke-linecap:round;stroke-linejoin:round"/><path d="M19,14.74c-1.19,0-3.09-1.47-4.4-4.29a9.74,9.74,0,0,1-1-4.26c0-1.13.38-1.93,1-2.2a1.27,1.27,0,0,1,.52-.11c1.19,0,3.08,1.48,4.4,4.3a10,10,0,0,1,1,4.25c0,1.13-.38,1.93-1,2.2a1.09,1.09,0,0,1-.51.11Z" style="fill:#fff"/><path d="M15.09,4.38c1,0,2.77,1.5,3.94,4,1.39,3,1.1,5.41.29,5.79a.73.73,0,0,1-.3.06c-1,0-2.78-1.5-3.95-4a9.3,9.3,0,0,1-1-4c0-.91.28-1.58.67-1.77a.75.75,0,0,1,.31-.06m0-1a1.66,1.66,0,0,0-.73.16c-1.6.74-1.68,3.93-.2,7.12,1.28,2.74,3.3,4.58,4.86,4.58a1.75,1.75,0,0,0,.72-.15c1.6-.75,1.69-3.93.2-7.12-1.28-2.74-3.3-4.59-4.85-4.59Z"/><rect x="9.05" y="15.74" width="1.64" height="4.75" transform="translate(-6.73 5.87) rotate(-25)" style="stroke:#000;stroke-linecap:round;stroke-linejoin:round"/></svg>