<svg id="Layer_1" data-name="Layer 1" xmlns="http://www.w3.org/2000/svg" viewBox="0 0 1000 1000"><defs><style>.cls-1{fill:#fff;}.cls-2,.cls-3,.cls-4{fill:none;stroke:#000;stroke-linecap:round;stroke-linejoin:round;}.cls-3{stroke-width:2px;}.cls-4{stroke-width:25px;}</style></defs><path class="cls-1" d="M55.65,715.05V285.84c.44-1.87.9-3.74,1.33-5.62,6.36-27.9,22.26-49.14,46.66-63.35Q276.8,116,450.32,15.78c31.56-18.28,64.12-17.71,94.95-.06,116.18,66.54,231.82,134,347.64,201.21,32.18,18.66,47.81,47.57,48,83.91.53,134.45.22,268.91.19,403.36a82.21,82.21,0,0,1-.52,11.54c-4.48,31.55-21.17,55.3-48.23,71.07Q718.62,888.08,544.49,988.61A85.54,85.54,0,0,1,516.73,999c-4.79.87-9.67,1.26-14.51,1.87h-5.33a23.05,23.05,0,0,0-3-.57,102.19,102.19,0,0,1-45.93-13.91q-70.37-40.89-140.8-81.65L101.67,785.65A88.84,88.84,0,0,1,70.12,755C62.51,742.64,58.47,729.08,55.65,715.05Z"/><rect class="cls-2" x="300" y="300" width="400" height="400" rx="100"/><path class="cls-3" d="M580,487.4A80,80,0,1,1,512.6,420,80,80,0,0,1,580,487.4Z"/><line class="cls-4" x1="610" y1="390" x2="610.2" y2="390"/></svg>